# xmcd
#
# Track frame offsets: 
#        182
#        9402
#        21720
#        32152
#        45890
#        55880
#        69812
#        85832
#        99160
#        118177
#        133360
#        148635
#        161670
#        176125
#        193020
#        207910
#        221345
#        234465
#        244967
#        265697
#        279640
#        295515
#
# Disc length: 4155 seconds
#
# Revision: 8
# Processed by: cddbd v1.5.2PL0 Copyright (c) Steve Scherf et al.
# Submitted via: ExactAudioCopy v1.0b1
#
DISCID=3f103916
DTITLE=Tom Jones - The Best of Tom Jones
DYEAR=1995
DGENRE=Pop
TTITLE0=It's Not Unusual
TTITLE1=With These Hands
TTITLE2=What's New Pussycat
TTITLE3=Thunderball
TTITLE4=Not Responsible
TTITLE5=Green Green Grass of Home
TTITLE6=Detroit City
TTITLE7=Funny Familiar Forgotten Feelings
TTITLE8=I'll Never Fall in Love Again
TTITLE9=I'm Coming Home
TTITLE10=Delilah
TTITLE11=Help Yourself
TTITLE12=Love Me Tonight
TTITLE13=Without Love
TTITLE14=Daughter of Darkness
TTITLE15=I (Who Have Nothing)
TTITLE16=She's a Lady
TTITLE17=Till
TTITLE18=The Young New Mexican Puppeteer
TTITLE19=Letter to Lucille
TTITLE20=Something 'bout You Baby I Like
TTITLE21=Say You'll Stay Until Tomorrow
EXTD=ID3G:   8
EXTT0=
EXTT1=
EXTT2=
EXTT3=
EXTT4=
EXTT5=
EXTT6=
EXTT7=
EXTT8=
EXTT9=
EXTT10=
EXTT11=
EXTT12=
EXTT13=
EXTT14=
EXTT15=
EXTT16=
EXTT17=
EXTT18=
EXTT19=
EXTT20=
EXTT21=
PLAYORDER=
